<svg height="48.28" width="47.56" xmlns="http://www.w3.org/2000/svg"><path d="m300 380.33c-5.15 1.11-9.36 4.23-12.88 8.82-4.31 1.15-6 5.33-2 9.36 4.27 3.91 12.29 6.06 14.19 10.81 5.62 8.46 14.52 13.36 25.72 7.66 1.64-.84 3.6-1.65 3.67-3.74a4.33 4.33 0 0 0 -2-3.53 73.32 73.32 0 0 0 -8.51-4.45l-5.06-13.8c-10.34-2-15.25-5.6-13.11-11.12zm-12.88 8.82c-.09 5.09 3.58 7.9 8.21 10.12 3.53 1.5 7.05 4.76 10.58 10.35 4.64 6.53 14.21 5.89 22.17 1.5m-33.83-24c-.55 3.42 1.64 5 4.37 6.13 3.74.92 6.4 3.73 8.51 7.52a9.68 9.68 0 0 0 4.6 8.36 14.48 14.48 0 0 1 6.44-3.91m-1.25-3.42a7 7 0 0 1 -6 .25m4.32-4.13a7 7 0 0 1 -6 .25m4.31-4a7 7 0 0 1 -6 .25m-5.55-16.76 3.91-4.8m10.24 11.45 9-11.45m-12.07 18.6 1.92-3.46c-2.35-2.35-5.94-1.39-6.91 2.22" fill="none" stroke="#ea7374" stroke-linecap="round" stroke-linejoin="round" stroke-width="1.7" transform="translate(-282 -372)"/></svg>