<svg height="39.23" width="50.34" xmlns="http://www.w3.org/2000/svg"><path d="m283.65 377.85h.77a2.81 2.81 0 0 1 2.8 2.8v8.63a2.81 2.81 0 0 1 -2.8 2.8h-.77a2.81 2.81 0 0 1 -2.8-2.8v-8.63a2.81 2.81 0 0 1 2.8-2.8zm42.27 0h.77a2.81 2.81 0 0 1 2.8 2.8v8.63a2.81 2.81 0 0 1 -2.8 2.8h-.77a2.81 2.81 0 0 1 -2.8-2.8v-8.63a2.81 2.81 0 0 1 2.8-2.8zm-13.2 23.35v.8a2.81 2.81 0 0 1 -2.8 2.8h-9.51a2.81 2.81 0 0 1 -2.8-2.8v-.8a2.81 2.81 0 0 1 2.8-2.8h9.51a2.81 2.81 0 0 1 2.8 2.8zm-25.5-16.2h35.9m-13.8 20.23v10.19h8.35v-34m.07 19.7h2.9a3 3 0 0 1 3 3v11.28h-5.87v-14.27zm-16.49 4.07v10.19h-8.35v-34m-.07 19.7h-2.9a3 3 0 0 0 -3 3v11.28h5.87v-14.23z" fill="none" stroke="#ea7374" stroke-linecap="round" stroke-linejoin="round" stroke-width="1.7" transform="translate(-280 -377)"/></svg>