<svg height="30.26" width="37.73" xmlns="http://www.w3.org/2000/svg"><path d="m299.73 393.57h7.27a.87.87 0 0 1 .87.87v7.25a.87.87 0 0 1 -.87.87h-7.25a.87.87 0 0 1 -.87-.87v-7.25a.87.87 0 0 1 .87-.87zm-.87-5.45h20.88m-7.9 5.72h7.9m-7.9 4.14h7.9m-7.9 4.85h4m-22.59 7.58h24.75c4.38 0 5.94-2.25 5.94-5.94v-22.62h-29.44v5.89h-6.65v18.26c0 3.65 1.25 4.41 5.34 4.41zm1.31-22.67v17.74c0 3.74-1.56 4.21-3 4.87" fill="none" stroke="#fff" stroke-linecap="round" stroke-linejoin="round" stroke-width="1.7" transform="translate(-287 -381)"/></svg>