<svg height="35.67" width="35.01" xmlns="http://www.w3.org/2000/svg"><path d="m305.79 401.16a2.67 2.67 0 1 1 -2.67 2.67 2.67 2.67 0 0 1 2.67-2.67zm7.95 0a2.67 2.67 0 1 1 -2.67 2.67 2.67 2.67 0 0 1 2.67-2.67zm-12.2 12.5v-2.17c0-3.42 8.51-3.3 8.51 0v2.34m2-4.6c2.52-.72 6.28.07 6.28 2.26v2.34m-21.15-12.66a2.67 2.67 0 1 0 2.67 2.67 2.67 2.67 0 0 0 -2.67-2.67zm1.68 8.06c-2.52-.72-6.28.07-6.28 2.26v2.34m1.09-34h23.67a4.83 4.83 0 0 1 4.82 4.82v4a4.83 4.83 0 0 1 -4.82 4.82h-1.72v5.54l-4.81-5.54h-2.64l-2.66 5.49-2.34-5.49h-2.64l-4.81 5.76v-5.76h-2a4.83 4.83 0 0 1 -4.82-4.82v-4a4.83 4.83 0 0 1 4.82-4.82zm-.37 4.89h24.11m-24.11 3.78h12.06" fill="none" stroke="#ea7374" stroke-linecap="round" stroke-linejoin="round" stroke-width="1.7" transform="translate(-288 -379)"/></svg>