<svg height="37.43" width="29.25" xmlns="http://www.w3.org/2000/svg"><path d="m302.13 392.87h11.76m-11.76 3.42h5.87m-9-8.09h18.49a1.9 1.9 0 0 1 1.9 1.9v8.9a1.9 1.9 0 0 1 -1.9 1.9h-11.79l-4.67 5v-5h-2a1.9 1.9 0 0 1 -1.9-1.9v-8.9a1.9 1.9 0 0 1 1.9-1.9zm1 22.29h3.69m-9.82-31.64h16a2 2 0 0 1 2 2v7.33h-12.87a1.9 1.9 0 0 0 -1.9 1.9v8.92a1.9 1.9 0 0 0 1.9 1.9h2v5l4.67-5h6.14v11.7a2 2 0 0 1 -2 2h-16a2 2 0 0 1 -2-2v-31.73a2 2 0 0 1 2-2zm12.34 0v1.73a1.74 1.74 0 0 1 -1.73 1.73h-5.27a1.74 1.74 0 0 1 -1.73-1.73v-1.73z" fill="none" stroke="#ea7374" stroke-linecap="round" stroke-linejoin="round" stroke-width="1.7" transform="translate(-291 -378)"/></svg>