<svg height="39.79" width="41.4" xmlns="http://www.w3.org/2000/svg"><path d="m300.54 390.13 1.6-5.45c3-11.06 17.17-7.85 14.09 3.63m-10.58-4c.94-1.63 2-3.1 4.23-2.94m-8.69 6.54 9.37 4.11m-13.51-.21 9.89 8.84a6.83 6.83 0 0 1 .76 9.52 6.72 6.72 0 0 1 -9.52.76l-9.89-8.84c-2.77-2.48-3.38-6.9-.76-9.52 2.63-2.63 6.75-3.23 9.52-.76zm-4.17 14.4 9.54-9.54m-12.92-1.89c-1.31 1.23-1 3 0 5m34.12-2.78 1.85 11.78a6.14 6.14 0 0 1 -4.89 7.06 6 6 0 0 1 -7.06-4.89l-1.85-11.78c-.52-3.3 1.57-6.72 4.89-7.06 3.32-.33 6.54 1.59 7.06 4.89zm-11.09 7.65 12.06-1.21m-7.92-8.67c-1.62.11-2.41 1.52-2.85 3.49" fill="none" stroke="#ea7374" stroke-linecap="round" stroke-linejoin="round" stroke-width="1.7" transform="translate(-285 -377)"/></svg>