<svg height="33.87" width="35.47" xmlns="http://www.w3.org/2000/svg"><path d="m295.13 380.85h15.67a1 1 0 0 1 1 1v2a1 1 0 0 1 -1 1h-15.67a1 1 0 0 1 -1-1v-2a1 1 0 0 1 1-1zm16.4 9.84h7.85a1 1 0 0 1 1 1v2a1 1 0 0 1 -1 1h-7.85a1 1 0 0 1 -1-1v-2a1 1 0 0 1 1-1zm-21 7.92v-6.46c0-2.64 4.63-3.43 4.63-7.29m15.31 0c0 2.71 3.84 3.79 3.84 5.83m-24.71 10.31h7.54a.75.75 0 0 1 .75.75v1.48a.75.75 0 0 1 -.75.75h-7.54a.75.75 0 0 1 -.75-.75v-1.48a.75.75 0 0 1 .75-.75zm0 0h7.54a.75.75 0 0 1 .75.75v10.56a.75.75 0 0 1 -.75.75h-7.54a.75.75 0 0 1 -.75-.75v-10.6a.75.75 0 0 1 .75-.75zm.9-5.58h12.09v11.89h-2.59m18.86-12.57c.5 1.85 3.26 2.57 3.77 4.47v12c0 1.26-.85 1.53-1.78 1.78h-10.1c-1.27 0-2.29-.51-2.29-1.68v-11.68c0-2.05 2.47-2.65 3.08-4.93m-12.1 18.23h7.56m15.65-12.08h-7.09v8.31h7.09" fill="none" stroke="#ea7374" stroke-linecap="round" stroke-linejoin="round" stroke-width="1.7" transform="translate(-288 -380)"/></svg>