<svg height="39.38" width="36.93" xmlns="http://www.w3.org/2000/svg"><path d="m305.43 377.85a8.09 8.09 0 1 1 -8.09 8.09 8.09 8.09 0 0 1 8.09-8.09zm-.43 8.86 3.56-3.27m-14.86 2.56c-4.24-.21-6 1.56-5.84 5.28l2.48 19a6.41 6.41 0 0 0 6.66 5.19h15.81m4.41-29.5c4.24-.21 6 1.56 5.84 5.28l-2.48 19a6.41 6.41 0 0 1 -6.66 5.19h-15.81m7.35-13.74v13.74m-9.65-17.14a.64.64 0 1 1 -.64.64.64.64 0 0 1 .64-.64zm3.91 0a.64.64 0 1 1 -.64.64.64.64 0 0 1 .64-.64zm-3.91 5a.64.64 0 1 1 -.64.64.64.64 0 0 1 .64-.64zm3.91 0a.64.64 0 1 1 -.64.64.64.64 0 0 1 .64-.64zm-3.91 5.15a.64.64 0 1 1 -.64.64.64.64 0 0 1 .64-.64zm3.91 0a.64.64 0 1 1 -.64.64.64.64 0 0 1 .64-.64zm11.35-10.11a.64.64 0 1 1 -.64.64.64.64 0 0 1 .64-.64zm3.91 0a.64.64 0 1 1 -.64.64.64.64 0 0 1 .64-.64zm-3.91 5a.64.64 0 1 1 -.64.64.64.64 0 0 1 .64-.64zm3.91 0a.64.64 0 1 1 -.64.64.64.64 0 0 1 .64-.64zm-3.91 5.15a.64.64 0 1 1 -.64.64.64.64 0 0 1 .64-.64zm3.91 0a.64.64 0 1 1 -.64.64.64.64 0 0 1 .64-.64z" fill="none" stroke="#ea7374" stroke-linecap="round" stroke-linejoin="round" stroke-width="1.7" transform="translate(-287 -377)"/></svg>