<svg height="30.03" width="43.57" xmlns="http://www.w3.org/2000/svg"><path d="m295.44 381.85h3.25a1.75 1.75 0 0 1 1.75 1.75v24.83a1.75 1.75 0 0 1 -1.75 1.75h-3.25a1.75 1.75 0 0 1 -1.75-1.75v-24.83a1.75 1.75 0 0 1 1.75-1.75zm-3.28 4h-2.84a1.53 1.53 0 0 0 -1.53 1.53v17.23a1.53 1.53 0 0 0 1.53 1.53h2.84a1.53 1.53 0 0 0 1.53-1.53v-17.21a1.53 1.53 0 0 0 -1.53-1.53zm-6.55 7.87h1.39a.77.77 0 0 1 .76.76v3.72a.77.77 0 0 1 -.76.76h-1.42a.77.77 0 0 1 -.76-.76v-3.72a.77.77 0 0 1 .76-.76zm30.51-11.89h-3.25a1.75 1.75 0 0 0 -1.75 1.75v24.83a1.75 1.75 0 0 0 1.75 1.75h3.25a1.75 1.75 0 0 0 1.75-1.75v-24.81a1.75 1.75 0 0 0 -1.75-1.75zm3.28 4h2.84a1.53 1.53 0 0 1 1.53 1.53v17.23a1.53 1.53 0 0 1 -1.53 1.53h-2.84a1.53 1.53 0 0 1 -1.53-1.53v-17.19a1.53 1.53 0 0 1 1.53-1.53zm6.55 7.87h-1.42a.77.77 0 0 0 -.76.76v3.72a.77.77 0 0 0 .76.76h1.47a.77.77 0 0 0 .76-.76v-3.72a.77.77 0 0 0 -.76-.76zm-25.51-.1h10.69m-10.69 4.75h10.69" fill="none" stroke="#ea7374" stroke-linecap="round" stroke-linejoin="round" stroke-width="1.7" transform="translate(-284 -381)"/></svg>