<svg enable-background="new -49 141 512 512" viewBox="-49 141 512 512" xmlns="http://www.w3.org/2000/svg"><g fill="#ea7374"><path d="m150.3 533.4 1.3 15.9c2.4-.2 4.9-.3 7.3-.3h8v-16h-8c-2.8 0-5.7.1-8.6.4zm-85.8 60.3 14.5 6.7c11-23.9 32.7-42 58-48.6l-4-15.5c-30.4 7.8-55.4 28.8-68.5 57.4z"/><path d="m351 505v-36h48v-8c0-22.1-17.9-40-40-40h-6.5c1.6-1.7 3.2-3.4 4.5-5.4 8.5-11.8 11.7-26 9-40.1l-13.5-71.8c-4.9-25.9-23.3-46.4-47.2-54.7 13.1-10.3 21.5-26.2 21.5-44 0-30.9-25.1-56-56-56s-56 25.1-56 56c0 15.7 6.5 29.8 16.9 40h-64.9v-8c0-13.2-10.8-24-24-24s-24 10.8-24 24v8h-4c-15.4 0-28 12.6-28 28s12.5 27.9 27.9 27.9h4.1v56h-63.8l-33.8-127.9h-19.4c-23.6 0-42.8 19.2-42.8 42.8 0 4.3.6 8.5 1.9 12.6l30.4 98.8 47.6 190.3c-10.1 18.9-15.9 40.5-15.9 63.5v8h432v-8c0-64-44.4-117.6-104-132zm-16-3c-5.3-.6-10.6-1-16-1v-32h16zm-69-33h37v32h-43.8zm93-32c10.4 0 19.3 6.7 22.6 16h-112.2l3.4-16zm-128-232c0-22.1 17.9-40 40-40s40 17.9 40 40-17.9 40-40 40-40-17.9-40-40zm-96 32c0-4.4 3.6-8 8-8s8 3.6 8 8v8h-16zm-32 36c0-6.6 5.4-12 12-12h166.9c26.9 0 50.1 19.2 55 45.7l13.5 71.8c1.8 9.8-.4 19.7-6.3 27.8-6.6 9.2-18.1 14.7-30.7 14.7h-40.5c-7.5 0-14.1 5.3-15.6 12.7l-18.6 86.7c-1.6 7.3-8.1 12.7-15.6 12.7-1.1 0-2.3-.1-3.3-.3-4.2-.9-7.8-3.4-10.1-7s-3.1-7.9-2.2-12l18.6-86.7c4.7-21.9 24.3-37.8 46.7-37.9h9.7l-16.9-84.7c-2.2-11.2-12.1-19.3-23.5-19.3h-127c-6.8-.2-12.1-5.6-12.1-12.2zm90.7 228h-34.7c-25.2 0-48.7 7-69 19l-28.8-115h65.8c22.1 0 40-17.9 40-40v-64h74.9c3.8 0 7.1 2.7 7.8 6.4l13.3 66.4c-25.7 4.1-47.1 23.8-52.7 49.8zm-74.7-128c8.8 0 16-7.2 16-16v-56h16v64c0 13.2-10.8 24-24 24h-88v-16zm-144-101.2c0-14.8 12-26.8 26.8-26.8h7.1l29.9 112h-15.8v16h-18.1l-28.7-93.4c-.8-2.5-1.2-5.2-1.2-7.8zm34.2 117.2h13.8v16h21.8l31.1 124.6c-9.5 7.3-17.9 15.9-25.2 25.4zm30.1 240c4.1-62.4 56.3-112 119.7-112h32c0 6.1 1.7 12.1 5.1 17.4 4.6 7.2 11.8 12.1 20.2 13.9 2.2.5 4.4.7 6.7.7 15 0 28.1-10.6 31.3-25.3l1.4-6.7h63.3c63.5 0 115.6 49.6 119.7 112z"/><path d="m271 565h-64c-13.2 0-24 10.8-24 24s10.8 24 24 24h64c13.2 0 24-10.8 24-24s-10.8-24-24-24zm0 32h-64c-4.4 0-8-3.6-8-8s3.6-8 8-8h64c4.4 0 8 3.6 8 8s-3.6 8-8 8zm88-48c-17.6 0-32 14.4-32 32s14.4 32 32 32 32-14.4 32-32-14.4-32-32-32zm0 48c-8.8 0-16-7.2-16-16s7.2-16 16-16 16 7.2 16 16-7.2 16-16 16z"/></g></svg>