<svg enable-background="new -220 312.9 169.1 169.1" viewBox="-220 312.9 169.1 169.1" xmlns="http://www.w3.org/2000/svg"><g fill="#333951"><path d="m-97.6 312.9h-75.8c-25.7 0-46.7 20.9-46.7 46.7v75.8c0 25.7 20.9 46.7 46.7 46.7h75.8c25.7 0 46.7-20.9 46.7-46.7v-75.8c0-25.7-21-46.7-46.7-46.7zm31.7 122.4c0 17.5-14.2 31.7-31.7 31.7h-75.8c-17.5 0-31.7-14.2-31.7-31.7v-75.8c0-17.5 14.2-31.7 31.7-31.7h75.8c17.5 0 31.7 14.2 31.7 31.7z"/><path d="m-135.5 353.9c-24 0-43.6 19.5-43.6 43.6 0 24 19.5 43.6 43.6 43.6s43.6-19.5 43.6-43.6-19.5-43.6-43.6-43.6zm0 72.1c-15.7 0-28.6-12.8-28.6-28.6s12.8-28.6 28.6-28.6 28.6 12.8 28.6 28.6-12.8 28.6-28.6 28.6zm45.4-84.8c-2.9 0-5.7 1.2-7.8 3.2s-3.2 4.9-3.2 7.8 1.2 5.7 3.2 7.8c2 2 4.9 3.2 7.8 3.2s5.7-1.2 7.8-3.2c2.1-2.1 3.2-4.9 3.2-7.8s-1.2-5.7-3.2-7.8c-2-2-4.9-3.2-7.8-3.2z"/></g></svg>